<?xml version="1.0" encoding="UTF-8" standalone="no"?>
<!-- Created with Inkscape (http://www.inkscape.org/) -->

<svg
   width="168.79521mm"
   height="131.56241mm"
   viewBox="0 0 168.79521 131.56241"
   version="1.1"
   id="svg1609"
   inkscape:version="1.1.2 (0a00cf5, 2022-02-04)"
   sodipodi:docname="cloud_co2.svg"
   xmlns:inkscape="http://www.inkscape.org/namespaces/inkscape"
   xmlns:sodipodi="http://sodipodi.sourceforge.net/DTD/sodipodi-0.dtd"
   xmlns="http://www.w3.org/2000/svg"
   xmlns:svg="http://www.w3.org/2000/svg">
  <sodipodi:namedview
     id="namedview1611"
     pagecolor="#ffffff"
     bordercolor="#666666"
     borderopacity="1.0"
     inkscape:pageshadow="2"
     inkscape:pageopacity="0.0"
     inkscape:pagecheckerboard="0"
     inkscape:document-units="mm"
     showgrid="false"
     fit-margin-top="0"
     fit-margin-left="0"
     fit-margin-right="0"
     fit-margin-bottom="0"
     inkscape:zoom="0.57370932"
     inkscape:cx="503.73942"
     inkscape:cy="394.79924"
     inkscape:window-width="1920"
     inkscape:window-height="1007"
     inkscape:window-x="0"
     inkscape:window-y="0"
     inkscape:window-maximized="1"
     inkscape:current-layer="g1858" />
  <defs
     id="defs1606" />
  <g
     inkscape:label="Layer 1"
     inkscape:groupmode="layer"
     id="layer1"
     transform="translate(28.133631,-43.979663)">
    <g
       transform="matrix(0.03527778,0,0,-0.03527778,-34.078747,200.13395)"
       fill="#000000"
       stroke="none"
       id="g1858">
      <g
         id="g4113">
        <path
           d="m 2973,4420 c -353,-45 -664,-234 -854,-519 -28,-42 -52,-78 -54,-80 -2,-1 -19,8 -37,22 -57,43 -199,105 -280,122 -168,33 -324,13 -483,-65 -166,-80 -304,-226 -375,-397 -34,-81 -60,-186 -60,-245 v -36 l -67,-7 c -293,-28 -498,-241 -575,-600 -24,-112 -26,-316 -5,-425 65,-328 265,-552 560,-630 77,-20 87,-26 87,-45 0,-49 43,-158 90,-228 184,-275 587,-496 1045,-573 121,-20 375,-23 490,-5 198,32 379,109 520,222 l 84,68 74,-45 c 240,-147 534,-148 780,-3 91,53 211,174 267,267 50,85 97,214 105,291 11,104 9,101 68,101 149,0 308,84 410,218 251,326 254,873 7,1184 -111,139 -232,211 -440,265 l -35,9 -7,78 c -40,443 -359,844 -790,995 -160,56 -370,80 -525,61 z M 1655,3160 c 136,-35 295,-142 295,-199 0,-15 -6,-34 -12,-43 -25,-30 -170,-138 -186,-138 -10,0 -40,15 -67,33 -75,50 -113,62 -190,61 -117,-1 -218,-63 -273,-168 -23,-43 -27,-64 -27,-136 0,-100 21,-154 86,-219 64,-64 120,-86 214,-86 83,0 117,11 207,67 35,22 38,22 70,6 18,-9 63,-44 101,-78 83,-76 87,-100 27,-153 -192,-174 -488,-201 -719,-65 -30,18 -85,63 -121,99 -149,149 -208,363 -158,579 45,197 244,396 444,444 88,21 217,20 309,-4 z m 1218,-9 c 156,-55 288,-172 355,-313 48,-99 62,-161 62,-271 0,-171 -56,-304 -180,-427 -125,-126 -256,-180 -432,-180 -149,0 -275,44 -383,134 -153,127 -226,279 -226,471 0,180 53,308 181,436 80,81 179,139 282,165 78,20 266,12 341,-15 z m 873,-952 c 69,-26 137,-90 167,-157 31,-70 29,-165 -5,-223 -31,-53 -100,-124 -192,-199 l -68,-55 128,-3 c 162,-3 164,-5 164,-113 0,-114 16,-109 -332,-109 -335,0 -318,-5 -318,97 v 66 l 53,51 c 28,28 119,109 200,180 88,76 155,142 165,162 15,32 15,36 -5,61 -23,32 -70,48 -109,39 -14,-4 -52,-32 -84,-62 -31,-29 -66,-54 -76,-54 -20,0 -135,78 -149,100 -13,21 5,57 52,110 82,92 162,129 280,130 50,0 90,-7 129,-21 z"
           id="path1854"
           style="fill:#37dedb;fill-opacity:1" />
        <path
           d="m 2597,2866 c -140,-39 -237,-181 -224,-326 9,-103 77,-199 177,-251 64,-33 183,-33 257,0 177,79 233,310 115,466 -73,96 -211,143 -325,111 z"
           id="path1856"
           style="fill:#37dedb;fill-opacity:1" />
      </g>
    </g>
  </g>
</svg>
