<?xml version="1.0" encoding="utf-8"?>
<!-- Generator: Adobe Illustrator 19.2.1, SVG Export Plug-In . SVG Version: 6.00 Build 0)  -->
<svg version="1.1" id="layer" xmlns="http://www.w3.org/2000/svg" xmlns:xlink="http://www.w3.org/1999/xlink" x="0px" y="0px"
	 viewBox="0 0 652 652" style="enable-background:new 0 0 652 652;" xml:space="preserve">
<style type="text/css">
	.st0{fill:#1A1A1A;}
	.st1{fill:#CFEDFC;}
	.st2{fill:#00ACE6;}
	.st3{fill:#FFE100;}
</style>
<path class="st0" d="M156.8,219.7c2.7,1.4,3.8,4.7,2.4,7.4c-2.8,5.3-4.3,13-4.8,20.9c-0.6,7.8-0.2,15.1,0.4,19.4
	c0.4,3-1.7,5.8-4.8,6.2c0,0,0,0,0,0c-3,0.4-5.8-1.7-6.2-4.7c-0.7-5.1-1.1-13.2-0.5-21.7c0.6-8.4,2.2-17.8,6-25.1
	C150.7,219.4,154.1,218.3,156.8,219.7z"/>
<path class="st1" d="M124.5,306.7c3.3-15.7-30.7-18.2-48.1-17.6c-68.7,1.5-40,43-1.9,47.6C90.1,338.7,120.3,326.3,124.5,306.7z"/>
<path class="st2" d="M40,297.9c1.9-1.6,4.4-3,7.6-4.2l1,3l5,6.2l7.3,6.5l5.6-0.8l28-2.9l29.5,3.1c-0.9,2.9-2.4,5.7-4.4,8.2
	c-8.7-1.7-29.1-2.2-40.1-2.3c-3,3.4-4,15.1-4.3,22.1c-3.3-0.4-6.6-1-9.8-1.9c-0.3-5.4,1.6-13.2,3-17.5c-8.7,0.5-17.8,4.7-22.9,7.6
	c-2.2-1.7-4.2-3.7-6-5.9l11.2-6.1C49,312.2,43.5,303.7,40,297.9L40,297.9z"/>
<path class="st3" d="M118.7,325.6l10.1,6.7L83.1,399l-11-7.3l-8.4-12.2l-4.2-20.2l7.6-17.8l18.1,5.5L118.7,325.6L118.7,325.6z"/>
<path class="st0" d="M109.5,281.4c13.5-28.8,46.5-21.7,62-11.4l-42.7,62.4l-4.9-3.3c-6.2,7.1-18.9,12.5-24.5,14.3
	c0.6,8,7.4,14.2,10.7,16.3l-14,20.5c-16.4-10.9-21.2-26.6-21.5-33l-6.1-0.3c-10.7,24,6.1,42.6,16.5,49.6l-18.1,26.5l3.2-24.8
	c-20.4-17.3-16.8-43.4-12.4-54.3c-14.1-2.8-38.5-22.9-33.9-40C31.6,273.9,84,274.4,109.5,281.4L109.5,281.4z M124.5,306.6
	c3.2-15.6-30.7-18.1-48.1-17.5c-11,0.2-19.6,1.5-26,3.5c2.8,8.7,9.4,13,12.6,14.1C83.2,302.3,109.4,304.4,124.5,306.6L124.5,306.6z
	 M123.2,310.8c-10.5-1.4-26.3-1.7-34.4-1.7c-11.1,7.5-12.5,20-11.5,27.9C92.3,337.3,116.6,327,123.2,310.8z M72.2,336.5
	c-2-11.4,4.5-22.2,8.5-26.6c-20.5,0.8-33.4,6.5-39.7,11C47.7,328.2,59.3,334.4,72.2,336.5z M37.4,316.2c5.1-3.1,14.2-5.9,19.1-7.1
	c-7.1-5.3-10.3-10.8-11.4-14.3C33.9,300,32.7,308.3,37.4,316.2L37.4,316.2z M224.3,264.7c-2.3-2-5.8-1.8-7.9,0.5
	c-4,4.5-10.6,8.7-17.8,12.2c-7.1,3.4-14.1,5.8-18.4,6.9c-2.9,0.7-4.7,3.7-4,6.6c0,0,0,0,0,0c0.8,3,3.8,4.7,6.8,4
	c5-1.3,12.8-3.9,20.5-7.7c7.6-3.7,15.9-8.7,21.3-14.9C226.8,270.2,226.6,266.8,224.3,264.7C224.3,264.8,224.3,264.7,224.3,264.7z"/>
<path class="st1" d="M154.5,326.7c13.5-8.9,28.6,21.3,34.4,37.5c24.2,63.4-25.5,52.6-44.1,19.5C137.2,370.1,137.6,337.9,154.5,326.7
	L154.5,326.7z"/>
<path class="st2" d="M194.3,400.8c0.8-2.3,1.2-5.2,1.1-8.5l-3.2,0.2l-7.7-2.2l-8.9-4.2l-1.3-5.4l-7.8-26.7l-13.9-25.8
	c-2.4,1.9-4.4,4.3-6.1,7c4.9,7.3,12.9,25.8,17.1,35.9c-2.1,4-12.7,9.3-19.2,12.1l0.3,0.6c1.5,2.7,3.2,5.2,5.1,7.6
	c5.2-1.8,11.8-6.4,15.4-9.3c2.8,8.1,2.2,18.1,1.4,23.8c2.6,1.4,5.2,2.6,7.7,3.3l1.5-12.6C177.4,397.9,187.5,399.7,194.3,400.8z"/>
<path class="st3" d="M138.8,339.1l-10.1-6.7L83.1,399l11,7.3l14.7,3.1l20.6-3.7l13.9-13.5l-11.9-14.6
	C131.3,377.6,138.8,339.1,138.8,339.1z"/>
<path class="st0" d="M183.9,331c22-23.1,3.1-50.6-12.4-61l-42.7,62.4l4.9,3.3c-4.4,8.4-4.7,22-4.3,27.8c-7.7,2.5-16.1-1.5-19.3-3.7
	l-14,20.5c16.4,10.9,32.9,9.5,39.1,7.4l2.6,5.5c-18.6,18.8-42.4,10.3-52.7,3.4l-18.1,26.5l22.2-12.1c23.9,12.3,47.1-0.8,55.7-8.9
	c7.8,11.9,35.9,26.7,50.3,16.1C220,399.6,200,351.7,183.9,331L183.9,331z M154.5,326.7c13.5-8.7,28.5,21.4,34.3,37.5
	c3.9,10.2,5.9,18.5,6.4,25.1c-9.2,0.6-15.7-3.8-18-6.3C174,362.9,162.3,339.7,154.5,326.7L154.5,326.7z M151.2,329.4
	c5.2,9.1,11.4,23.4,14.4,30.9c-2.9,12.9-14.2,18.9-22,21C137.8,367.6,138.4,341.5,151.2,329.4L151.2,329.4z M145.9,385.7
	c11.5-2.4,19.2-12.4,21.9-17.7c6.9,19.1,6.3,33,4.4,40.5C162.9,405,152.7,396.7,145.9,385.7z M178,410c1-5.8,0.2-15.1-0.4-20.1
	c7.6,4.6,14,5.4,17.7,5.1C194.5,407.1,187.2,411.4,178,410L178,410z M330.6,345.9v-59.5h29.1c22.7,0,30.3,0.2,34.5,1
	c2.9,0.6,7,1.8,9.1,2.7c2.1,0.9,5.3,3.1,7.2,4.9s4.3,4.8,5.2,6.7c1,1.9,2,5.5,2.4,8c0.5,3,0.5,5.9,0,8.9c-0.4,2.5-1.5,6.1-2.5,8
	c-1,2-3.1,4.8-4.9,6.3c-2.1,1.7-4.3,3.2-6.7,4.4l-3.6,1.7l2.1,0.5c1.1,0.3,3.4,1.1,5,1.8c1.6,0.7,4.4,2.6,6.2,4.2
	c1.8,1.6,4,4.1,4.8,5.4c0.9,1.4,2.1,4.1,2.7,6.1c0.6,2.1,1.1,6.2,1.1,9.4c0,3.9-0.5,7-1.5,10.1c-0.8,2.4-2.6,5.9-4,7.7
	c-1.4,1.8-4.3,4.5-6.4,5.9c-2.6,1.7-5.3,3-8.2,4c-2.4,0.8-7.3,1.7-10.8,2.1c-3.5,0.4-18.7,0.7-33.7,0.7l-27.3,0l-0.1-31.2l-1.8,2.4
	c-1,1.3-4,4.6-6.7,7.2c-2.7,2.7-6.9,6.2-9.3,7.8c-2.4,1.6-7,4.1-10.1,5.6c-3.1,1.4-8,3.3-10.9,4.1c-3,0.9-8.3,1.6-12.6,1.9
	c-5.6,0.3-8.7,0.1-12.7-0.8c-3.5-0.8-6.9-2-10.1-3.5c-2.6-1.3-6.4-3.8-8.3-5.5c-1.9-1.7-5-5.3-6.7-7.9s-4-6.9-4.9-9.5
	c-1.1-3.4-1.9-6.9-2.4-10.4c-0.4-3.1-0.5-7.7-0.3-10.1c0.2-2.5,1-6.7,1.8-9.5c0.7-2.8,2.2-6.6,3.2-8.6c1-2,3.1-5.4,4.6-7.7
	c1.6-2.3,5.1-6.3,7.8-8.9c2.7-2.6,6.7-5.8,8.9-7.1c2.2-1.3,5.9-3.1,8.3-4.1c3.9-1.6,9.1-2.2,12.2-2.2c3.1,0,8.4,0.5,11.8,2.3
	c2,1.1,5.1,3.3,6.8,5c2.2,2.2,3.4,4.2,4.2,6.9c0.8,2.6,1,4.9,0.7,7.5c-0.3,2-1.4,5.6-2.6,8c-1.4,2.7-4.1,6.2-7.4,9.5
	c-2.9,2.9-8,7-11.3,9.1c-3.3,2.1-8,4.8-10.4,5.8c-2.4,1.1-6.8,2.7-9.9,3.7c-3.1,0.9-7,1.9-8.9,2.2c-2.2,0.3-3.3,0.8-3.3,1.5
	c0,0.6,0.9,3,2.1,5.3c1.1,2.4,3.4,5.6,4.9,7.2c1.6,1.6,4.9,3.8,7.4,5c3.6,1.7,5.7,2.2,10.6,2.4c4.3,0.2,7.7,0,11.4-0.8
	c2.9-0.6,8-2.5,11.4-4.1c4.1-2,8-4.4,11.7-7.1c3.6-2.7,7-5.7,10.1-8.8c2.8-2.9,5.4-5.9,7.8-9.1L330.6,345.9L330.6,345.9z
	 M390.2,313.1c-1.1-1.5-2.4-2.7-4-3.5c-2.1-1-4.5-1.2-16.1-1.2h-13.7v20.6h13.4c12.5,0,13.6-0.1,16.5-1.5c2-1,3.5-2.4,4.3-3.9
	c0.7-1.3,1.2-3.7,1.2-5.2C391.8,316.4,391.2,314.5,390.2,313.1z M291.3,315.3c-0.9-1-1.9-1.9-3.1-2.5c-1.2-0.6-3.9-1-6.5-1
	c-3.7,0-5.3,0.4-9.6,2.5c-3.7,1.8-6.6,3.9-10.3,7.7c-3.6,3.6-6.1,6.9-8.2,10.8c-1.6,3.1-3.4,7.7-4,10.2c-0.5,2.6-0.8,4.8-0.6,5
	c0.2,0.2,2.8-0.1,5.7-0.8c3.7-0.8,7.3-2,10.9-3.4c3-1.2,8.2-4.1,11.6-6.3c3.3-2.2,7.5-5.6,9.3-7.6c1.8-2,3.8-4.8,4.6-6.4
	c0.8-1.5,1.4-3.7,1.4-4.8C292.4,317.8,291.9,316.2,291.3,315.3z M393,355.6c-0.9-1.3-3-3-4.7-3.9c-2.9-1.4-4-1.5-17.2-1.5H357V375
	l14.4-0.2c13-0.2,14.7-0.4,17.2-1.7c1.6-0.8,3.4-2.5,4.3-4.1c1.1-2,1.6-3.8,1.6-6.9C394.6,358.9,394.2,357.4,393,355.6z
	 M437.3,396.5L437,286.4h26.7c20.8,0,28,0.2,32.9,1c3.9,0.7,7.6,1.8,11.2,3.4c2.9,1.3,6.7,3.8,8.8,5.8c2,1.9,4.5,4.9,5.5,6.7
	c1,1.8,2.3,5.2,2.9,7.7c0.7,2.7,1.1,7,1.1,11.3c0,3.9-0.5,8.6-1.1,10.9c-0.6,2.4-1.5,4.6-2.5,6.9c-1.1,2.1-2.4,4.1-3.8,6.1
	c-1.3,1.8-4.5,4.6-7,6.3s-6.6,3.7-8.9,4.5c-3.1,0.9-6.4,1.6-9.6,2.1c-3,0.4-10.7,0.7-17.2,0.7h-11.8l-0.4,36.7H437.3L437.3,396.5z
	 M496.6,315c-1-1.7-2.6-3.3-4.3-4.2c-2.5-1.3-4.2-1.7-15.5-1.9l-12.7,0v28.2l11.3,0c6.2,0,12.5-0.3,13.9-0.7c1.4-0.4,3.7-1.7,5-2.8
	c1.7-1.5,2.8-3.2,3.5-5.9c0.7-2.4,1-4.9,0.7-6.9C498.2,318.8,497.5,316.8,496.6,315z"/>
<path class="st0" d="M543.2,342.3l0.2,54.2h26.4l0.4-42.2l46.2-0.4l0.4-22.3h-46.6v-21.9H623v-23.3h-79.8
	C543.2,295.9,543.2,321.4,543.2,342.3z"/>
</svg>
